<svg viewBox="0 0 200 200" xmlns="http://www.w3.org/2000/svg">
    <path fill="#ff0066" d="M 52.3 -60.2 C 65.4 -47.5 74.2 -30.7 72.6 -15.7 C 70.9 -0.6 61 12 49.6 26.1 C 40.3 39.5 33.9 53 21.6 63.2 C 9.4 73.4 -8.6 80 -24.7 76.2 C -40.7 72.4 -54.9 58.1 -64.1 41.1 C -73.3 24.2 -77.4 4.5 -74.2 -13.7 C -71 -32 -60.5 -48.9 -46.3 -61.4 C -32 -74 -14.1 -82.1 3.8 -81.8 C 21.5 -81.5 39.1 -72.9 52.3 -60.2 Z" transform="matrix(1,0,0,1,100,100)" />
    <rect x="19" y="6" width="161" height="194" fill="rgb(255, 255, 255)"/>
</svg>